<svg width="251" height="74" viewBox="0 0 251 74" fill="none" xmlns="http://www.w3.org/2000/svg">
<path d="M50.283 52.022L49.651 52.298C49.597 52.322 44.63 54.552 43.863 57.86C45.488 58.227 48.681 59.163 50.353 61.11L50.609 61.407V64.79H38.755L36.632 57.334L34.215 59.671C34.845 60.069 35.437 60.539 35.929 61.101L36.19 61.402V64.793H28.916L24.881 68.692H69.442L50.057 49.303C50.201 49.939 50.283 50.615 50.283 51.333V52.022Z" fill="#EB0029"/>
<path d="M22.973 29.548C22.973 32.014 21.042 33.871 18.48 33.871C17.213 33.871 14.266 33.282 14.266 27.83V25.411C14.266 25.411 16.61 28.164 17.876 28.164C18.55 28.164 19.215 27.455 19.984 26.635C21.078 25.472 22.433 24.056 24.594 23.874L6.19501 5.44299V50.593L27.843 28.905C27.215 28.297 26.366 27.848 25.219 27.848C24.374 27.849 22.973 28.672 22.973 29.548Z" fill="#EB0029"/>
<path d="M84.763 57.029V56.508L85.626 56.424C85.792 56.403 85.814 56.365 85.814 56.191V49.299C85.814 49.121 85.792 49.074 85.626 49.064L84.763 48.98V48.459H87.709V48.98L86.799 49.076C86.619 49.097 86.61 49.123 86.61 49.301V56.178C86.61 56.367 86.621 56.392 86.799 56.414L87.709 56.51V57.031L84.763 57.029Z" fill="#0033A0"/>
<path d="M96.788 57.029L92.242 49.476V56.174C92.242 56.363 92.253 56.388 92.43 56.41L93.222 56.506V57.027H90.512V56.506L91.258 56.422C91.423 56.401 91.446 56.363 91.446 56.189V49.297C91.446 49.119 91.424 49.082 91.258 49.062L90.512 48.978V48.445H92.595L97 55.927V49.298C97 49.12 96.977 49.083 96.81 49.063L96.066 48.979V48.458H98.765V48.979L97.971 49.075C97.792 49.096 97.783 49.122 97.783 49.3V57.03L96.788 57.029Z" fill="#0033A0"/>
<path d="M108.598 53.68C108.455 53.69 108.409 53.727 108.409 53.843V56.721C107.733 57.04 106.607 57.171 105.662 57.171C102.477 57.171 101.259 55.266 101.259 52.671C101.259 50.173 102.644 48.305 105.448 48.305C106.514 48.305 107.496 48.552 108.065 48.932V50.661L107.461 50.626L107.26 49.511C107.248 49.417 107.237 49.348 107.106 49.298C106.659 49.134 106.017 49.003 105.39 49.003C103.389 49.003 102.086 50.317 102.086 52.686C102.086 55.163 103.437 56.475 105.709 56.475C106.289 56.475 107.047 56.378 107.473 56.261C107.557 56.239 107.628 56.2 107.628 56.059V53.75H105.899L106.016 53.099H109.094V53.631L108.598 53.68Z" fill="#0033A0"/>
<path d="M111.456 57.029V56.508L112.202 56.424C112.369 56.403 112.39 56.365 112.39 56.191V49.31C112.39 49.133 112.369 49.084 112.202 49.076L111.456 48.992V48.459H114.355V48.992L113.374 49.086C113.197 49.099 113.185 49.148 113.185 49.312V56.369H116.547C116.678 56.369 116.714 56.357 116.736 56.24L116.925 55.209H117.516V57.033H111.455L111.456 57.029Z" fill="#0033A0"/>
<path d="M119.939 57.027V56.506L120.685 56.424C120.852 56.4 120.873 56.363 120.873 56.187V49.31C120.873 49.131 120.852 49.082 120.685 49.074L119.939 48.99V48.457H125.741V50.234L125.137 50.197L124.972 49.275C124.95 49.156 124.901 49.121 124.771 49.121H121.669V52.365H124.982V53.029H121.669V56.365H125.03C125.162 56.365 125.197 56.355 125.219 56.236L125.409 55.205H126V57.027H119.939ZM122.082 47.961L121.798 47.513L123.941 45.961L124.416 46.707L122.082 47.961Z" fill="#0033A0"/>
<path d="M133.146 50.529L132.945 49.51C132.924 49.404 132.912 49.332 132.876 49.285C132.793 49.179 132.308 49.025 131.598 49.025C130.237 49.025 129.586 49.603 129.586 50.541C129.586 52.933 134.001 51.545 134.001 54.754C134.001 56.541 132.592 57.168 130.944 57.168C129.855 57.168 128.874 56.897 128.544 56.73V54.943H129.122L129.348 55.949C129.384 56.103 129.396 56.15 129.549 56.211C129.738 56.281 130.273 56.459 131.053 56.459C132.367 56.459 133.161 55.961 133.161 54.813C133.161 52.28 128.744 53.737 128.744 50.622C128.744 48.977 130.046 48.305 131.644 48.305C132.626 48.305 133.396 48.565 133.75 48.696V50.589L133.146 50.529Z" fill="#0033A0"/>
<path d="M85.231 42.051V40.322L86.934 40.133C87.314 40.078 87.368 39.998 87.368 39.592V24.958C87.368 24.553 87.314 24.444 86.934 24.417L85.231 24.228V22.47H93.696C98.321 22.47 99.62 24.578 99.62 27.256C99.62 29.825 97.971 31.26 96.32 31.8V31.881C99.402 32.234 100.863 33.939 100.863 36.643C100.863 40.645 97.807 42.051 93.56 42.051H85.231ZM92.37 30.88C94.426 30.88 96.537 30.367 96.537 27.716C96.537 25.337 95.129 24.822 92.775 24.822H90.504V30.88H92.37ZM93.102 39.699C95.7 39.699 97.592 39.185 97.592 36.451C97.592 33.964 95.806 33.206 93.587 33.206H90.505V39.699H93.102Z" fill="#435363"/>
<path d="M112.873 42.051V40.349L114.657 40.107L112.628 34.992C112.303 34.155 111.871 33.83 110.953 33.83H108.652V39.564C108.652 39.998 108.678 40.051 109.086 40.107L110.815 40.322V42.051H103.38V40.322L105.082 40.133C105.462 40.078 105.515 39.998 105.515 39.592V24.958C105.515 24.553 105.462 24.444 105.082 24.417L103.38 24.228V22.47H112.033C116.9 22.47 118.197 25.121 118.197 27.824C118.197 30.665 116.683 32.206 114.547 33.044C115.388 33.45 115.655 34.1 116.17 35.398L117.792 39.538C118.009 39.942 118.197 39.997 118.605 40.052L120.254 40.323V42.052L112.873 42.051ZM110.654 31.53C112.954 31.53 114.927 30.909 114.927 27.96C114.927 25.475 113.413 24.823 110.463 24.823H108.651V31.53H110.654Z" fill="#435363"/>
<path d="M121.716 42.051V40.322L123.69 40.133C124.07 40.107 124.126 39.998 124.126 39.592V24.931C124.126 24.526 124.07 24.416 123.69 24.39L121.716 24.202V22.47H129.803V24.201L127.721 24.417C127.315 24.472 127.287 24.525 127.287 24.932V39.563C127.287 39.997 127.313 40.05 127.721 40.104L129.803 40.321V42.05L121.716 42.051Z" fill="#435363"/>
<path d="M135.291 42.051V40.293L138.077 40.105C138.456 40.078 138.512 39.969 138.512 39.564V24.796H134.887C134.59 24.796 134.507 24.822 134.454 25.094L134.019 27.448H131.748V22.47H148.434V27.448H146.19L145.758 25.094C145.703 24.823 145.622 24.796 145.321 24.796H141.673V39.563C141.673 39.942 141.699 40.05 142.106 40.077L145.082 40.294V42.052L135.291 42.051Z" fill="#435363"/>
<path d="M159.2 42.051V40.322L161.419 40.078L160.173 36.427H152.952L151.709 40.078L153.872 40.322V42.051H147.111V40.349L148.273 40.051C148.598 39.969 148.842 39.863 148.951 39.535L154.899 22.47H158.712L164.689 39.59C164.796 39.914 165.013 39.969 165.338 40.051L166.58 40.349V42.051H159.2ZM156.632 25.473H156.55L153.654 34.044H159.497L156.632 25.473ZM154.819 21.334L153.98 19.847L159.281 16.441L160.524 18.712L154.819 21.334Z" fill="#435363"/>
<path d="M182.243 42.051L172.857 26.581V39.563C172.857 39.997 172.885 40.05 173.291 40.104L175.104 40.321V42.05H168.153V40.321L169.858 40.132C170.236 40.077 170.29 39.997 170.29 39.591V24.931C170.29 24.526 170.236 24.416 169.858 24.39L168.153 24.202V22.444H174.021L183.189 37.858V24.931C183.189 24.526 183.136 24.416 182.757 24.39L181.053 24.202V22.47H188.002V24.201L186.189 24.417C185.786 24.472 185.757 24.525 185.757 24.932V42.051H182.243Z" fill="#435363"/>
<path d="M190.546 42.051V40.322L192.521 40.133C192.899 40.107 192.955 39.998 192.955 39.592V24.931C192.955 24.526 192.899 24.416 192.521 24.39L190.546 24.202V22.47H198.632V24.201L196.55 24.417C196.144 24.472 196.117 24.525 196.117 24.932V39.563C196.117 39.997 196.142 40.05 196.55 40.104L198.632 40.321V42.05L190.546 42.051Z" fill="#435363"/>
<path d="M216.968 40.916C215.452 41.888 212.829 42.377 210.368 42.377C203.716 42.377 201.012 38.293 201.012 32.152C201.012 26.391 204.283 22.119 210.883 22.119C213.209 22.119 215.507 22.687 216.915 23.606V28.337L214.614 28.175L214.154 25.552C214.129 25.309 214.046 25.173 213.776 25.092C212.937 24.821 211.882 24.606 210.748 24.606C206.825 24.606 204.31 27.203 204.31 32.152C204.31 37.317 206.689 39.914 210.556 39.914C211.665 39.914 213.018 39.808 213.91 39.455C214.18 39.373 214.288 39.293 214.343 38.941L214.776 36.451H216.966L216.968 40.916Z" fill="#435363"/>
<path d="M219.187 32.207C219.187 26.474 222.432 22.119 228.708 22.119C234.979 22.119 237.713 26.473 237.713 31.909C237.713 38.264 234.629 42.377 228.328 42.377C221.944 42.377 219.187 38.156 219.187 32.207ZM234.466 32.152C234.466 27.174 232.249 24.742 228.678 24.742C225.029 24.742 222.458 27.204 222.458 32.18C222.458 37.398 224.811 39.751 228.436 39.751C232.004 39.752 234.466 37.506 234.466 32.152Z" fill="#435363"/>
<path d="M52.978 21.086C53.973 20.208 54.551 19.122 55.061 18.164C55.742 16.892 56.93 16.102 58.165 16.102H58.798L69.445 5.44098H63.862L49.651 19.671L49.061 22.564C50.655 22.474 51.945 21.998 52.978 21.086Z" fill="#EB0029"/>
<path d="M50.404 13.146L50.461 15.275L50.43 15.305C50.539 15.534 50.591 15.811 50.595 16.132L61.285 5.44H47.542V12.993C48.038 13.084 48.633 13.146 49.347 13.146H50.404Z" fill="#0033A0"/>
<path d="M57.303 25.743L55.703 27.344H69.446V13.601L60.274 22.773L59.782 25.737L57.303 25.743Z" fill="#0033A0"/>
<path d="M69.446 60.533V46.789H55.703L69.446 60.533Z" fill="#0033A0"/>
<path d="M28.1 5.44H14.356L28.1 19.183V5.44Z" fill="#0033A0"/>
<path d="M58.277 34.831L57.94 36.863H57.942L57.385 40.215H54.371L54.168 40.129C53.274 39.736 52.164 39.25 50.826 39.25C49.652 39.25 48.534 39.508 47.801 39.717L45.015 40.687C44.558 40.845 44.077 41.073 43.592 41.33V41.751C44.071 42.002 44.693 42.365 45.364 42.838H69.446V31.294H58.862L58.277 34.831Z" fill="#EB0029"/>
<path d="M38.38 9.34398C40.772 9.34398 42.344 10.022 43.242 10.588L43.592 10.809V5.44098H32.051V13.148C32.062 13.129 32.073 13.107 32.084 13.088C33.428 10.815 35.899 9.34398 38.38 9.34398Z" fill="#EB0029"/>
<path d="M33.931 30.505C32.453 25.853 31.41 23.64 31.307 20.548C31.219 17.851 32.005 15.456 33.089 13.624C34.3 11.575 36.512 10.399 38.475 10.399C40.671 10.399 42.058 11.028 42.773 11.479C42.217 11.418 41.496 11.388 40.611 11.388C39.09 11.388 37.617 11.48 37.601 11.481L37.427 11.494V14.614C36.409 15.065 32.21 19.001 36.556 30.505H33.931Z" fill="#435363"/>
<path d="M37.887 30.505C34.904 23.465 35.731 18.077 37.708 15.9C37.708 15.9 38.522 16.917 39.752 17C39.473 17.625 38.861 19.243 38.883 21.37C38.899 22.955 39.265 24.49 39.972 25.933C40.784 27.587 42.046 29.124 43.731 30.505H37.887Z" fill="#435363"/>
<path d="M45.729 30.505C43.791 29.289 42.189 27.517 41.22 25.51C40.208 23.413 39.928 21.142 40.402 18.886C40.587 19.791 40.996 21.16 41.866 22.01C42.647 22.777 43.951 23.15 45.85 23.15C46.61 23.15 47.184 23.389 47.605 23.879C48.725 25.188 48.442 27.965 48.273 29.622C48.237 29.976 48.208 30.274 48.194 30.505H45.729Z" fill="#435363"/>
<path d="M48.086 22.525C47.655 22.165 46.598 21.641 44.068 21.641C42.313 21.641 41.797 19.621 41.382 17.997C41.079 16.809 40.818 15.785 40.108 15.785C38.415 15.785 38.384 14.489 38.384 14.432V12.376C38.76 12.351 39.716 12.292 40.806 12.292C43.288 12.292 44.912 12.585 45.38 13.121C46.229 14.093 48.503 14.198 49.442 14.198H49.499V14.813C49.478 14.834 49.431 14.86 49.398 14.876C49.283 14.943 49.106 15.044 49.106 15.265C49.106 15.462 49.266 15.531 49.353 15.567C49.485 15.624 49.633 15.686 49.633 16.157C49.633 16.669 48.981 17.329 48.508 17.723C48.494 17.474 48.418 17.25 48.285 17.077C48.132 16.878 47.913 16.764 47.684 16.764H47.584C46.74 16.764 45.228 16.895 44.588 17.777C44.284 18.194 44.213 18.72 44.374 19.344C44.523 19.917 44.971 20.604 46.255 20.604C47.137 20.604 48.089 20.286 48.577 20.096L48.086 22.525ZM42.282 13.564C42.441 13.836 42.997 14.738 43.437 14.793C43.503 14.802 43.571 14.808 43.643 14.808C44.232 14.808 44.783 14.517 44.806 14.503L44.983 14.408L44.879 14.229C44.843 14.169 44.531 13.645 44.163 13.481C43.9 13.367 42.688 13.284 42.449 13.269L42.095 13.246L42.282 13.564Z" fill="#435363"/>
<path d="M25.892 45.797C23.918 45.42 22.454 43.603 22.454 41.484C22.454 40.435 22.819 39.443 23.485 38.691C24.147 37.943 25.033 37.513 25.975 37.485L26.154 37.48V37.474C27.378 37.404 28.495 36.828 29.318 35.839C30.126 34.87 30.589 33.567 30.589 32.26C30.589 31.075 29.34 26.791 25.313 26.791C23.996 26.791 22.012 27.968 22.012 29.546C22.012 31.301 20.653 32.815 18.575 32.815C16.708 32.815 15.418 31.347 15.418 27.829C15.418 27.829 16.351 29.223 17.971 29.223C20.465 29.223 21.521 24.897 25.144 24.897C30.25 24.897 32.571 29.882 32.571 32.262C32.571 34.223 31.953 36.153 30.876 37.561C29.675 39.13 28.007 39.983 26.053 40.026C25.332 40.042 24.744 40.696 24.744 41.485C24.744 42.22 25.244 42.831 25.891 42.929L25.892 45.797Z" fill="#435363"/>
<path d="M49.319 30.504C49.463 29.509 49.933 25.627 48.94 23.643C50.911 23.585 52.495 23.006 53.773 21.877C54.91 20.873 55.564 19.648 56.088 18.66C56.536 17.819 57.359 17.157 58.257 17.157H60.223L60.017 18.395H58.121L57.983 19.219H59.879L59.674 20.457H57.777L57.625 21.378H59.522L59.317 22.618H57.421L57.284 23.441H59.18L58.974 24.68L56.814 24.686C55.14 24.749 54.644 25.911 54.123 27.137C53.463 28.685 52.718 30.433 49.319 30.504Z" fill="#435363"/>
<path d="M54.685 39.16C53.659 38.709 52.447 38.191 50.919 38.191C48.806 38.191 46.919 38.926 46.691 38.982C43.933 38.963 39.923 35.482 38.354 31.727H48.135C48.135 32.305 48.914 33.896 50.815 33.896C52.294 33.896 53.544 33.334 54.078 32.792C54.596 32.265 55.085 31.766 56.22 31.729L57.813 31.727L57.609 32.964H55.713L55.58 33.758H57.476L57.272 34.996H55.376L55.228 35.886H57.126L56.921 37.125H55.023L54.89 37.92H56.788L56.583 39.16H54.685Z" fill="#435363"/>
<path d="M34.198 63.734L33.635 61.796H32.59L33.153 63.734H31.72L31.156 61.796H30.11L30.674 63.734H29.145L28.582 61.796H27.536L28.1 63.734H25.169L22.461 54.326C24.169 53.472 25.346 52.053 26.061 50.076C26.69 48.336 26.991 46.064 27.001 42.935C28.398 42.832 30.31 41.613 31.826 39.832C33.754 37.564 34.182 34.694 34.227 31.726H37.098C37.804 33.252 38.665 34.987 39.942 36.461C41.252 37.973 42.832 39.033 44.761 39.688C42.951 40.315 40.84 41.694 39.102 43.399C36.984 45.483 35.768 47.696 35.768 49.477C35.768 52.743 33.723 53.384 31.57 54.104C27.095 55.6 28.38 58.708 28.38 58.708C28.38 58.708 33.021 59.274 35.231 61.796V63.734H34.198Z" fill="#435363"/>
<path d="M48.605 63.734L48.042 61.796H46.996L47.56 63.734H46.126L45.562 61.796H44.517L45.081 63.734H43.551L42.987 61.796H41.94L42.504 63.734H39.646L36.967 54.326C43.039 53.469 40.715 49.638 37.096 48.476C37.096 48.476 38.68 44.461 42.344 42.277C42.344 42.277 49.32 45.099 49.32 51.334C49.32 51.334 42.803 54.191 42.803 58.709C42.803 58.709 47.62 59.441 49.647 61.797V63.735L48.605 63.734Z" fill="#435363"/>
<path d="M245.162 57.611V68.691H234.081" fill="#0033A0"/>
</svg>
